<svg width="9" height="20" viewBox="0 0 9 20" fill="none" xmlns="http://www.w3.org/2000/svg">
<path d="M3.5 0C3.22 0 3 0.22 3 0.5V5C2.93 5 2.85 5 2.78 5.03C1.82 5.27 1.21 6 0.76 6.89C0.3 7.76 0 8.84 0 10C0.05 13 0 16.03 0 19C0 19.55 0.45 20 1 20H7C7.55 20 8 19.55 8 19C8.04 16 8 13 8 10C8 8.84 7.74 7.76 7.28 6.88C6.83 6 6.22 5.27 5.26 5.04C5.18 5 5.05 5 5 5V0.5C5 0.22 4.78 0 4.5 0M4 6.85C4.32 6.85 4.63 6.9 4.78 7C4.85 7.03 5.2 7.26 5.5 7.81C5.78 8.37 6 9.17 6 10V18H2V10C2 9.17 2.22 8.37 2.5 7.81C2.8 7.26 3.15 7.03 3.22 7C3.36 6.9 3.68 6.85 4 6.85Z" fill="#2E5C99"/>
</svg>
