<svg width="24" height="24" viewBox="0 0 24 24" fill="none" xmlns="http://www.w3.org/2000/svg">
<g clip-path="url(#clip0_90_534)">
<path d="M5.5001 20.0001C6.3281 20.0001 7.0001 20.6721 7.0001 21.5001C7.0001 22.3281 6.3281 23.0001 5.5001 23.0001C4.6721 23.0001 4.0001 22.3281 4.0001 21.5001C4.0001 20.6721 4.6721 20.0001 5.5001 20.0001ZM18.5001 20.0001C19.3281 20.0001 20.0001 20.6721 20.0001 21.5001C20.0001 22.3281 19.3281 23.0001 18.5001 23.0001C17.6721 23.0001 17.0001 22.3281 17.0001 21.5001C17.0001 20.6721 17.6721 20.0001 18.5001 20.0001ZM2.1721 1.75708L5.9991 5.58508V17.0001H20.0001V19.0001H5.0001C4.4481 19.0001 4.0001 18.5521 4.0001 18.0001V6.41308L0.756104 3.17208L2.1721 1.75708ZM16.0001 3.00008C16.5521 3.00008 17.0001 3.44808 17.0001 4.00008V6.00008H19.9931C20.5501 6.00008 21.0001 6.45608 21.0001 6.99508V15.0051C21.0001 15.5551 20.5501 16.0001 19.9931 16.0001H8.0071C7.4501 16.0001 7.0001 15.5441 7.0001 15.0051V6.99508C7.0001 6.44508 7.4501 6.00008 8.0071 6.00008H10.9991L11.0001 4.00008C11.0001 3.44808 11.4481 3.00008 12.0001 3.00008H16.0001ZM10.0001 8.00008H9.0001V14.0001H10.0001V8.00008ZM16.0001 8.00008H12.0001V14.0001H16.0001V8.00008ZM19.0001 8.00008H18.0001V14.0001H19.0001V8.00008ZM15.0001 5.00008H13.0001V6.00008H15.0001V5.00008Z" fill="#2E5C99"/>
</g>
<defs>
<clipPath id="clip0_90_534">
<rect width="24" height="24" fill="white"/>
</clipPath>
</defs>
</svg>
