<svg width="10" height="24" viewBox="0 0 10 24" fill="none" xmlns="http://www.w3.org/2000/svg">
<path d="M9.13631 6.86531C9.81693 11.0138 9.54412 13.9678 8.32444 15.6459C8.02561 16.068 7.64259 16.4236 7.19952 16.6903C6.75644 16.9571 6.26292 17.1291 5.75006 17.1956V21.75H7.25006C7.44897 21.75 7.63974 21.829 7.78039 21.9697C7.92104 22.1103 8.00006 22.3011 8.00006 22.5C8.00006 22.6989 7.92104 22.8897 7.78039 23.0303C7.63974 23.171 7.44897 23.25 7.25006 23.25H2.75006C2.55115 23.25 2.36038 23.171 2.21973 23.0303C2.07908 22.8897 2.00006 22.6989 2.00006 22.5C2.00006 22.3011 2.07908 22.1103 2.21973 21.9697C2.36038 21.829 2.55115 21.75 2.75006 21.75H4.25006V17.1956C3.73729 17.1288 3.2439 16.9566 2.80087 16.6899C2.35784 16.4232 1.97476 16.0678 1.67568 15.6459C0.456935 13.9678 0.184122 11.0138 0.864747 6.86531C1.18122 4.97161 1.62631 3.10165 2.19693 1.26844C2.24585 1.11774 2.34123 0.986412 2.4694 0.893276C2.59757 0.800139 2.75194 0.749983 2.91037 0.75H7.09068C7.24912 0.749983 7.40349 0.800139 7.53166 0.893276C7.65982 0.986412 7.75521 1.11774 7.80412 1.26844C8.37475 3.10165 8.81984 4.97161 9.13631 6.86531ZM2.54381 6H7.45631C7.17506 4.53938 6.82631 3.20531 6.53943 2.25H3.46162C3.17475 3.20531 2.82787 4.53938 2.54381 6ZM7.71881 7.5H2.28131C1.86037 10.3125 1.79943 13.2694 2.886 14.7647C3.37162 15.4275 4.06256 15.75 5.00006 15.75C5.93756 15.75 6.62943 15.4275 7.11131 14.7647C8.19693 13.2694 8.13693 10.3125 7.71881 7.5Z" fill="#2E5C99"/>
</svg>
