<svg width="24" height="24" viewBox="0 0 24 24" fill="none" xmlns="http://www.w3.org/2000/svg">
<g clip-path="url(#clip0_90_515)">
<path d="M17 2V4L13 3.999V6H16V8C18.21 8 20 9.79 20 12V20C20 21.105 19.105 22 18 22H5.99995C4.89495 22 3.99995 21.105 3.99995 20V12C3.99995 9.79 5.78995 8 7.99995 8V6H11V3.999L7.49995 4C6.86995 4 6.12995 4.49 5.29995 5.6L3.69995 4.4C4.86995 2.84 6.12995 2 7.49995 2H17ZM16 10H7.99995C6.89495 10 5.99995 10.895 5.99995 12V20H18V12C18 10.895 17.105 10 16 10Z" fill="#2E5C99"/>
</g>
<defs>
<clipPath id="clip0_90_515">
<rect width="24" height="24" fill="white"/>
</clipPath>
</defs>
</svg>
