<svg width="22" height="13" viewBox="0 0 22 13" fill="none" xmlns="http://www.w3.org/2000/svg">
<path d="M11.917 8.00011C11.6623 9.48018 10.8619 10.811 9.67392 11.7298C8.48593 12.6486 6.99666 13.0886 5.50009 12.963C4.00352 12.8374 2.60841 12.1554 1.59016 11.0514C0.57191 9.9475 0.00452288 8.50194 2.5002e-06 7.00011C-0.00137098 5.49472 0.563193 4.04382 1.58168 2.93527C2.60017 1.82672 3.99816 1.14153 5.49828 1.01565C6.9984 0.889774 8.49103 1.3324 9.68002 2.25571C10.869 3.17902 11.6675 4.51555 11.917 6.00011H22V8.00011H20V12.0001H18V8.00011H16V12.0001H14V8.00011H11.917ZM6 11.0001C7.06087 11.0001 8.07828 10.5787 8.82843 9.82854C9.57858 9.0784 10 8.06098 10 7.00011C10 5.93925 9.57858 4.92183 8.82843 4.17169C8.07828 3.42154 7.06087 3.00012 6 3.00012C4.93914 3.00012 3.92172 3.42154 3.17158 4.17169C2.42143 4.92183 2 5.93925 2 7.00011C2 8.06098 2.42143 9.0784 3.17158 9.82854C3.92172 10.5787 4.93914 11.0001 6 11.0001Z" fill="#2E5C99"/>
</svg>
