<svg width="18" height="22" viewBox="0 0 18 22" fill="none" xmlns="http://www.w3.org/2000/svg">
<path d="M14.084 13.8119C15.0244 12.8183 15.653 11.5709 15.8922 10.2239C16.1314 8.87689 15.9706 7.48932 15.4297 6.2327C14.8888 4.97609 13.9916 3.9055 12.8489 3.15328C11.7062 2.40106 10.3681 2.00017 9 2.00017C7.63193 2.00017 6.29384 2.40106 5.15112 3.15328C4.00841 3.9055 3.11117 4.97609 2.5703 6.2327C2.02943 7.48932 1.86863 8.87689 2.1078 10.2239C2.34696 11.5709 2.9756 12.8183 3.916 13.8119C4.45567 12.9508 5.20536 12.2409 6.09467 11.749C6.98398 11.2571 7.98373 10.9994 9 10.9999C10.0163 10.9994 11.016 11.2571 11.9053 11.749C12.7946 12.2409 13.5443 12.9508 14.084 13.8119ZM9 21.7279L2.636 15.3639C1.37734 14.1052 0.520187 12.5016 0.172928 10.7558C-0.17433 9.00995 0.00390685 7.20035 0.685099 5.55582C1.36629 3.91129 2.51984 2.50569 3.99988 1.51677C5.47992 0.527838 7.21998 0 9 0C10.78 0 12.5201 0.527838 14.0001 1.51677C15.4802 2.50569 16.6337 3.91129 17.3149 5.55582C17.9961 7.20035 18.1743 9.00995 17.8271 10.7558C17.4798 12.5016 16.6227 14.1052 15.364 15.3639L9 21.7279ZM9 9.99992C8.20435 9.99992 7.44129 9.68385 6.87868 9.12124C6.31607 8.55863 6 7.79557 6 6.99992C6 6.20427 6.31607 5.44121 6.87868 4.8786C7.44129 4.31599 8.20435 3.99992 9 3.99992C9.79565 3.99992 10.5587 4.31599 11.1213 4.8786C11.6839 5.44121 12 6.20427 12 6.99992C12 7.79557 11.6839 8.55863 11.1213 9.12124C10.5587 9.68385 9.79565 9.99992 9 9.99992Z" fill="#2E5C99"/>
</svg>
