<svg width="16" height="16" viewBox="0 0 16 16" fill="none" xmlns="http://www.w3.org/2000/svg">
<path d="M15.7654 12.2347C15.8002 12.2695 15.8279 12.3108 15.8468 12.3564C15.8656 12.4019 15.8753 12.4507 15.8753 12.5C15.8753 12.5492 15.8656 12.598 15.8468 12.6436C15.8279 12.6891 15.8002 12.7305 15.7654 12.7653L12.7654 15.7653C12.695 15.8356 12.5996 15.8752 12.5001 15.8752C12.4005 15.8752 12.3051 15.8356 12.2347 15.7653C12.1644 15.6949 12.1248 15.5995 12.1248 15.5C12.1248 15.4005 12.1644 15.305 12.2347 15.2347L14.5944 12.875H0.500051C0.400595 12.875 0.305212 12.8355 0.234886 12.7651C0.16456 12.6948 0.125051 12.5994 0.125051 12.5C0.125051 12.4005 0.16456 12.3051 0.234886 12.2348C0.305212 12.1645 0.400595 12.125 0.500051 12.125H14.5944L12.2347 9.76528C12.1644 9.69491 12.1248 9.59948 12.1248 9.49996C12.1248 9.40045 12.1644 9.30502 12.2347 9.23465C12.3051 9.16429 12.4005 9.12476 12.5001 9.12476C12.5996 9.12476 12.695 9.16429 12.7654 9.23465L15.7654 12.2347ZM3.23474 6.76528C3.26958 6.80012 3.31094 6.82776 3.35646 6.84661C3.40199 6.86547 3.45078 6.87517 3.50005 6.87517C3.54932 6.87517 3.59811 6.86547 3.64364 6.84661C3.68916 6.82776 3.73052 6.80012 3.76536 6.76528C3.80021 6.73044 3.82784 6.68907 3.8467 6.64355C3.86555 6.59803 3.87526 6.54924 3.87526 6.49996C3.87526 6.45069 3.86555 6.4019 3.8467 6.35638C3.82784 6.31086 3.80021 6.26949 3.76536 6.23465L1.40568 3.87496H15.5001C15.5995 3.87496 15.6949 3.83546 15.7652 3.76513C15.8355 3.6948 15.8751 3.59942 15.8751 3.49996C15.8751 3.40051 15.8355 3.30513 15.7652 3.2348C15.6949 3.16447 15.5995 3.12496 15.5001 3.12496H1.40568L3.76536 0.765277C3.80021 0.730436 3.82784 0.689073 3.8467 0.643551C3.86555 0.598028 3.87526 0.549237 3.87526 0.499964C3.87526 0.450691 3.86555 0.401901 3.8467 0.356378C3.82784 0.310856 3.80021 0.269493 3.76536 0.234652C3.73052 0.19981 3.68916 0.172173 3.64364 0.153317C3.59811 0.134461 3.54932 0.124756 3.50005 0.124756C3.45078 0.124756 3.40199 0.134461 3.35646 0.153317C3.31094 0.172173 3.26958 0.19981 3.23474 0.234652L0.234738 3.23465C0.199872 3.26948 0.172213 3.31084 0.153341 3.35636C0.134469 3.40189 0.124756 3.45068 0.124756 3.49996C0.124756 3.54925 0.134469 3.59804 0.153341 3.64357C0.172213 3.68909 0.199872 3.73045 0.234738 3.76528L3.23474 6.76528Z" fill="#021B41"/>
</svg>
